<?xml version="1.0" encoding="UTF-8"?>
<svg version="1.1" xmlns="http://www.w3.org/2000/svg" width="360" height="360">
<path d="M0 0 C0.99 0.66 1.98 1.32 3 2 C3 2.66 3 3.32 3 4 C3.763125 4.0825 4.52625 4.165 5.3125 4.25 C8.67279864 5.18775776 9.29770189 5.99128706 11 9 C11.3956287 13.36774081 11.13187137 17.60428782 11 22 C17.93 22 24.86 22 32 22 C31.8425481 16.62965487 31.8425481 16.62965487 31.63964844 11.26098633 C31.58189318 7.3424784 31.73418639 5.42630485 33.86328125 2.01171875 C36.36670535 -0.34525275 37.56443904 -1 41 -1 C43.3125 0.0625 43.3125 0.0625 46 2 C47.01900391 2.72703125 47.01900391 2.72703125 48.05859375 3.46875 C53.83482143 7.66964286 53.83482143 7.66964286 55 10 C55.13860991 14.00305407 55.04262206 17.99352624 55 22 C61.93 22 68.86 22 76 22 C75.88171704 16.25591242 75.88171704 16.25591242 75.72973633 10.51269531 C75.66856312 4.62691141 75.66856312 4.62691141 77.33203125 1.48046875 C79.82523725 -0.73247054 81.70289101 -0.93405782 85 -1 C87.875 0.3125 87.875 0.3125 90 2 C90 2.66 90 3.32 90 4 C90.94875 4.268125 91.8975 4.53625 92.875 4.8125 C96 6 96 6 98 9 C98.27064779 13.34660356 98.08632079 17.64080016 98 22 C104.93 22 111.86 22 119 22 C118.8425481 16.62965487 118.8425481 16.62965487 118.63964844 11.26098633 C118.58189318 7.3424784 118.73418639 5.42630485 120.86328125 2.01171875 C123.36670535 -0.34525275 124.56443904 -1 128 -1 C130.3125 0.0625 130.3125 0.0625 133 2 C133.67933594 2.47308594 134.35867187 2.94617187 135.05859375 3.43359375 C140.86017941 7.58053822 140.86017941 7.58053822 142 11 C142.0685495 12.89470816 142.08480372 14.7916834 142.0625 16.6875 C142.05347656 17.68136719 142.04445312 18.67523438 142.03515625 19.69921875 C142.01775391 20.83810547 142.01775391 20.83810547 142 22 C143.670625 21.9071875 143.670625 21.9071875 145.375 21.8125 C152.93246392 21.85255723 160.03023605 24.07847641 165.91796875 28.875 C168.65702568 31.67058531 170.99970875 34.6593441 173.3125 37.8125 C173.73337891 38.38073486 174.15425781 38.94896973 174.58789062 39.53442383 C179.71751752 46.87264008 181.44826301 54.33525175 181.43237305 63.19165039 C181.44766052 64.49572342 181.44766052 64.49572342 181.46325684 65.82614136 C181.49317246 68.6667137 181.50261973 71.50694766 181.51171875 74.34765625 C181.52858136 76.33020632 181.54673371 78.3127458 181.56611633 80.29527283 C181.61345065 85.48848156 181.643367 90.68164733 181.66955566 95.875 C181.69944505 101.18433103 181.74594648 106.49351434 181.79101562 111.80273438 C181.87686012 122.20174538 181.94428899 132.60078693 182 143 C182.81114258 143.39396973 183.62228516 143.78793945 184.45800781 144.19384766 C185.52889648 144.72026855 186.59978516 145.24668945 187.703125 145.7890625 C188.76176758 146.30678223 189.82041016 146.82450195 190.91113281 147.35791016 C206.23664555 155.50519111 217.12197465 169.87310993 223 186 C228.61976942 204.52944055 226.9709132 222.89523648 218.8125 240.3125 C213.10122508 250.99379926 205.75078025 258.8955693 196 266 C196.71027344 266.31453125 197.42054688 266.6290625 198.15234375 266.953125 C199.07144531 267.38109375 199.99054688 267.8090625 200.9375 268.25 C202.31228516 268.87648438 202.31228516 268.87648438 203.71484375 269.515625 C206 271 206 271 206.81640625 273.171875 C206.87699219 273.77515625 206.93757812 274.3784375 207 275 C196.07291066 285.92708934 173.57321472 284.51507137 159 285 C157.96601074 285.03504639 157.96601074 285.03504639 156.91113281 285.07080078 C113.57136799 286.3123588 113.57136799 286.3123588 98 276 C98 273.75 98 273.75 99 271 C101.51226396 269.30407811 104.21781041 268.18204344 107 267 C108.33746532 266.34166215 109.6720813 265.67738774 111 265 C110.40832031 264.56429688 109.81664062 264.12859375 109.20703125 263.6796875 C108.41683594 263.08414062 107.62664062 262.48859375 106.8125 261.875 C106.03519531 261.29492188 105.25789062 260.71484375 104.45703125 260.1171875 C102 258 102 258 100.03178406 254.91201782 C98.31437589 252.84594458 97.37512664 252.09123572 94.73970985 251.45026779 C91.82266075 251.24820203 88.95817058 251.23858637 86.03442383 251.29052734 C84.92809601 251.28632278 83.82176819 251.28211823 82.68191528 251.27778625 C79.02306658 251.27007408 75.36572646 251.3036874 71.70703125 251.3359375 C69.15980197 251.3348436 66.61257221 251.3305354 64.06535339 251.32315063 C56.66703219 251.30835545 49.26935664 251.33435568 41.87113953 251.36656952 C31.83236789 251.40768001 21.79385676 251.41722631 11.7550106 251.39805984 C8.01581019 251.39843166 4.27736928 251.42416862 0.5382843 251.45175171 C-1.77029412 251.45243703 -4.07887311 251.45213264 -6.38745117 251.45068359 C-7.41897812 251.46514023 -8.45050507 251.47959686 -9.51329041 251.49449158 C-18.29907805 251.44721563 -26.58839531 249.34315339 -33 243 C-34.82985721 240.82907891 -36.48997168 238.57004018 -38.125 236.25 C-38.55425781 235.66734375 -38.98351563 235.0846875 -39.42578125 234.484375 C-39.84472656 233.8965625 -40.26367188 233.30875 -40.6953125 232.703125 C-41.2524292 231.92437012 -41.2524292 231.92437012 -41.82080078 231.12988281 C-46.72811606 222.26623508 -46.43336162 213.83502922 -46.40405273 203.98657227 C-46.40976058 202.25617025 -46.41672644 200.525772 -46.42485046 198.79537964 C-46.44275089 194.11145958 -46.4416194 189.42772719 -46.43590808 184.74378324 C-46.43281181 180.82733918 -46.43891353 176.91093094 -46.44494683 172.99449199 C-46.45898012 163.75240104 -46.45744062 154.51040255 -46.44604492 145.26831055 C-46.4345638 135.74677636 -46.44864201 126.22552384 -46.4754414 116.70402676 C-46.49762096 108.51608666 -46.50423072 100.32823483 -46.49836498 92.14026684 C-46.49499974 87.25568483 -46.49738178 82.37128338 -46.51461601 77.48672676 C-46.53011914 72.89256618 -46.52609236 68.29882192 -46.50731087 63.70467758 C-46.50363435 62.02332957 -46.50670604 60.34195048 -46.51719666 58.66063118 C-46.58206815 47.39993478 -45.76077706 38.23698254 -37.83984375 29.5703125 C-31.4437825 24.11125386 -23.97363938 21.82701814 -15.6875 21.9375 C-14.80449219 21.94652344 -13.92148438 21.95554687 -13.01171875 21.96484375 C-12.01591797 21.98224609 -12.01591797 21.98224609 -11 22 C-11.04640625 20.74703125 -11.0928125 19.4940625 -11.140625 18.203125 C-11.17814813 16.55210719 -11.21454771 14.90106358 -11.25 13.25 C-11.28351563 12.425 -11.31703125 11.6 -11.3515625 10.75 C-11.45075974 4.59977122 -11.45075974 4.59977122 -9.109375 1.484375 C-5.56045816 -1.01301093 -4.19319665 -1.12500398 0 0 Z " fill="#97B1CC" transform="translate(90,38)"/>
<path d="M0 0 C69.63 0 139.26 0 211 0 C211 16.5 211 33 211 50 C207.7 49.67 204.4 49.34 201 49 C180.06606935 47.86289424 162.71923375 52.62421983 146.4921875 66.640625 C133.2860651 79.14297285 125.16127752 96.23419055 124.65380859 114.40600586 C124.57502177 121.67108534 124.74345551 128.48238937 127.1484375 135.41796875 C127.94329714 137.82807069 128.51261095 140.18401473 129.05322266 142.66137695 C129.23116364 143.47339066 129.40910461 144.28540436 129.59243774 145.12202454 C129.72693329 145.74175644 129.86142883 146.36148834 130 147 C115.66557925 147.04679867 101.33117041 147.08189419 86.99668884 147.10362434 C80.34037256 147.11405453 73.68412132 147.1281999 67.02783203 147.15087891 C60.60228979 147.17263433 54.17679693 147.18457439 47.7512207 147.18975449 C45.30166853 147.19344537 42.85211901 147.20065273 40.40258789 147.21146011 C36.9675516 147.22601069 33.53271848 147.22797642 30.09765625 147.22705078 C29.08848648 147.23424133 28.07931671 147.24143188 27.03956604 147.24884033 C20.18685445 147.22890278 12.65648044 147.16589108 7.25 142.375 C6.45335937 141.70597656 6.45335937 141.70597656 5.640625 141.0234375 C-0.29794992 133.6991951 -0.56353727 127.1792143 -0.45410156 118.06640625 C-0.4545837 116.76694565 -0.45506584 115.46748505 -0.45556259 114.12864685 C-0.45646059 110.63365225 -0.4333854 107.13921252 -0.40512085 103.64434814 C-0.38223334 100.35731583 -0.38126256 97.07030557 -0.37841797 93.78320312 C-0.35748169 84.18872944 -0.30163662 74.59435758 -0.25 65 C-0.1675 43.55 -0.085 22.1 0 0 Z " fill="#FDFDFD" transform="translate(49,129)"/>
<path d="M0 0 C1.15242188 0.01804687 2.30484375 0.03609375 3.4921875 0.0546875 C4.36101562 0.07789062 5.22984375 0.10109375 6.125 0.125 C6.18558594 1.17300781 6.24617188 2.22101563 6.30859375 3.30078125 C6.39301738 4.67970048 6.47766447 6.05860605 6.5625 7.4375 C6.60181641 8.12779297 6.64113281 8.81808594 6.68164062 9.52929688 C6.87427415 12.59661535 7.14822717 15.19468152 8.125 18.125 C12.65912916 18.54578902 12.65912916 18.54578902 16.8125 17.09375 C18.81443883 14.09084176 18.69729012 10.93518261 18.8125 7.4375 C18.915625 5.024375 19.01875 2.61125 19.125 0.125 C29.025 0.125 38.925 0.125 49.125 0.125 C49.4375 7.4375 49.4375 7.4375 49.51293945 9.7277832 C49.67058771 12.59191841 49.84281639 14.69921999 51.4453125 17.1171875 C54.36498985 18.86899391 56.95809627 17.87354088 60.125 17.125 C62.97095048 14.27904952 62.58033687 11.31701839 62.75 7.5 C62.87375 5.06625 62.9975 2.6325 63.125 0.125 C73.025 0.125 82.925 0.125 93.125 0.125 C93.4375 7.4375 93.4375 7.4375 93.51293945 9.7277832 C93.672401 12.62486188 93.81681019 14.68832543 95.51171875 17.08984375 C97.80467668 18.56111215 99.45268238 18.39223176 102.125 18.125 C103.61 17.63 103.61 17.63 105.125 17.125 C105.455 11.515 105.785 5.905 106.125 0.125 C116.025 0.125 125.925 0.125 136.125 0.125 C136.4375 7.4375 136.4375 7.4375 136.51293945 9.7277832 C136.67052552 12.59078854 136.84111974 14.69749984 138.4453125 17.11328125 C140.30731983 18.44299955 140.30731983 18.44299955 143.6875 18 C147.37942394 17.46866067 147.37942394 17.46866067 149.125 14.125 C149.41952584 11.73822924 149.6178217 9.33873906 149.75 6.9375 C149.82476562 5.66519531 149.89953125 4.39289063 149.9765625 3.08203125 C150.05003906 1.61830078 150.05003906 1.61830078 150.125 0.125 C152.83360665 0.07070722 155.54110901 0.03118789 158.25 0 C159.01054687 -0.01675781 159.77109375 -0.03351563 160.5546875 -0.05078125 C169.07968613 -0.12427262 174.82155588 2.43980413 181.125 8.125 C193.62280466 22.98628634 186.125 45.69597867 186.125 63.125 C116.495 63.125 46.865 63.125 -24.875 63.125 C-24.875 13.71895248 -24.875 13.71895248 -18.06640625 6.1015625 C-17.26009766 5.43253906 -17.26009766 5.43253906 -16.4375 4.75 C-15.90253906 4.28851563 -15.36757813 3.82703125 -14.81640625 3.3515625 C-10.05505845 0.34338703 -5.53346981 -0.11292796 0 0 Z " fill="#346699" transform="translate(73.875,64.875)"/>
<path d="M0 0 C0.91426758 -0.01015137 1.82853516 -0.02030273 2.77050781 -0.03076172 C17.90479953 0.16284814 31.91705819 7.13000783 42.8125 17.4375 C48.78634478 23.74730793 52.71324083 30.34890315 55.8125 38.4375 C56.1321875 39.19160156 56.451875 39.94570312 56.78125 40.72265625 C61.84517713 54.39057068 59.37590195 70.80589477 53.55517578 83.74316406 C45.76232938 100.08314475 33.31734289 108.26137217 17.38671875 115.546875 C6.35016961 119.36528654 -9.50167308 119.14139391 -20.1875 114.4375 C-21.62996094 113.81681641 -21.62996094 113.81681641 -23.1015625 113.18359375 C-38.36701752 106.09192034 -48.94379486 95.23086878 -55.21484375 79.51953125 C-57.48063612 72.33997229 -58.55391191 65.59168375 -58.5 58.0625 C-58.49436035 57.23105469 -58.4887207 56.39960938 -58.48291016 55.54296875 C-58.17487601 39.90337362 -51.22535838 26.62630382 -40.31640625 15.53515625 C-28.52074489 4.68884389 -15.82469404 0.12458302 0 0 Z " fill="#FBFCFD" transform="translate(242.1875,187.5625)"/>
<path d="M0 0 C4.45845379 2.81979174 8.11756189 6.31660296 11.75097656 10.10742188 C12.44449219 10.77 13.13800781 11.43257812 13.85253906 12.11523438 C26.9925771 25.45820737 31.30935276 43.22825826 31.23925781 61.39453125 C30.74167253 79.6274775 22.90893048 95.6301965 10.30957031 108.70898438 C-3.54946004 121.7005029 -20.31110392 127.31686891 -38.99902344 127.41992188 C-39.98177246 127.42556152 -40.96452148 127.43120117 -41.97705078 127.43701172 C-58.65870673 127.27022343 -76.14919842 119.61701152 -88.24902344 108.10742188 C-102.34631235 93.30526852 -107.88243592 72.84483611 -107.48730469 52.97851562 C-106.78380714 34.84352707 -97.01366783 18.32407769 -84.12402344 5.98242188 C-74.68433078 -2.0299633 -64.19872277 -6.87961975 -52.24902344 -9.89257812 C-51.61013184 -10.06692383 -50.97124023 -10.24126953 -50.31298828 -10.42089844 C-33.20125119 -14.33145865 -14.70962072 -8.5647091 0 0 Z M-81.73339844 18.16601562 C-91.15196694 30.23052219 -96.67212861 42.04738247 -96.56152344 57.41992188 C-96.55588379 58.24951416 -96.55024414 59.07910645 -96.54443359 59.93383789 C-96.2247511 76.20124535 -89.79104698 90.58267681 -78.24902344 102.10742188 C-63.31436403 114.41894239 -49.06662354 117.91937143 -30.24902344 117.10742188 C-27.05731405 116.79096344 -24.26966643 116.171575 -21.24902344 115.10742188 C-19.83943359 114.61242187 -19.83943359 114.61242187 -18.40136719 114.10742188 C-1.70580709 107.69092343 8.90315709 96.89347349 16.75097656 81.10742188 C22.72017059 66.9254402 22.65296427 50.72505706 17.23925781 36.45117188 C15.12294249 31.6964057 12.76413269 27.35075544 9.75097656 23.10742188 C9.11095703 22.19283203 9.11095703 22.19283203 8.45800781 21.25976562 C-0.05852085 10.29567154 -13.64665528 2.50758073 -27.24902344 0.10742188 C-47.91238337 -1.72819688 -67.21068577 2.35972986 -81.73339844 18.16601562 Z " fill="#36689A" transform="translate(280.2490234375,187.892578125)"/>
<path d="M0 0 C5.79479092 4.66802602 8.41695563 10.72310756 9.23490906 18.1260643 C9.6368208 24.25847378 9.60670616 30.40009168 9.609375 36.54296875 C9.62437691 38.52266275 9.64110823 40.50234433 9.65948486 42.48200989 C9.70294485 47.65878922 9.72310991 52.83539977 9.73822021 58.0123291 C9.75786866 63.30845024 9.79982974 68.60439113 9.83984375 73.90039062 C9.91491432 84.2668712 9.96534561 94.63331098 10 105 C11.21671387 105.59095459 11.21671387 105.59095459 12.45800781 106.19384766 C13.52889648 106.72026855 14.59978516 107.24668945 15.703125 107.7890625 C16.76176758 108.30678223 17.82041016 108.82450195 18.91113281 109.35791016 C34.23664555 117.50519111 45.12197465 131.87310993 51 148 C56.61976942 166.52944055 54.9709132 184.89523648 46.8125 202.3125 C41.10122508 212.99379926 33.75078025 220.8955693 24 228 C24.71027344 228.31453125 25.42054688 228.6290625 26.15234375 228.953125 C27.07144531 229.38109375 27.99054688 229.8090625 28.9375 230.25 C29.85402344 230.66765625 30.77054687 231.0853125 31.71484375 231.515625 C34 233 34 233 34.81640625 235.171875 C34.87699219 235.77515625 34.93757813 236.3784375 35 237 C24.07291066 247.92708934 1.57321472 246.51507137 -13 247 C-13.68932617 247.02336426 -14.37865234 247.04672852 -15.08886719 247.07080078 C-58.42863201 248.3123588 -58.42863201 248.3123588 -74 238 C-74 235.75 -74 235.75 -73 233 C-70.50805973 231.24553131 -67.83264488 230.10131694 -65 229 C-63.63101563 228.33291016 -63.63101563 228.33291016 -62.234375 227.65234375 C-57.55208646 226.70796913 -54.97541583 228.47278136 -50.9375 230.75 C-49.55161618 231.49634412 -48.16491569 232.24117407 -46.77734375 232.984375 C-45.79483643 233.51514648 -45.79483643 233.51514648 -44.79248047 234.05664062 C-32.42742048 240.56421238 -14.3063123 239.70311017 -1 236.5 C15.59411079 231.22676035 30.33109981 221.46681473 39 206 C48.30495139 187.43853529 51.77359389 167.60587772 45.3125 147.34765625 C38.43067632 129.79490955 26.43887419 116.13661404 9.203125 108.30078125 C8.50912598 107.98129517 7.81512695 107.66180908 7.10009766 107.3326416 C5.40174625 106.55142919 3.70110215 105.77520436 2 105 C1.9845388 103.15956619 1.9845388 103.15956619 1.96876526 101.2819519 C1.87099267 89.71688168 1.7682549 78.15186478 1.66066074 66.58688164 C1.60550557 60.64127299 1.55209744 54.69565937 1.50268555 48.75 C1.45493274 43.0117178 1.40258606 37.27349419 1.34705925 31.53528214 C1.32668513 29.34646184 1.30796401 27.15762551 1.29092598 24.9687767 C1.26677241 21.9021399 1.23673297 18.83561284 1.20532227 15.76904297 C1.1995668 14.86489151 1.19381134 13.96074005 1.18788147 13.02919006 C1.13610064 8.57915477 0.89309059 4.38038738 0 0 Z " fill="#C3D2E1" transform="translate(262,76)"/>
<path d="M0 0 C0.91426758 -0.01015137 1.82853516 -0.02030273 2.77050781 -0.03076172 C17.90479953 0.16284814 31.91705819 7.13000783 42.8125 17.4375 C48.78634478 23.74730793 52.71324083 30.34890315 55.8125 38.4375 C56.1321875 39.19160156 56.451875 39.94570312 56.78125 40.72265625 C61.84517713 54.39057068 59.37590195 70.80589477 53.55517578 83.74316406 C45.76232938 100.08314475 33.31734289 108.26137217 17.38671875 115.546875 C6.35016961 119.36528654 -9.50167308 119.14139391 -20.1875 114.4375 C-21.62996094 113.81681641 -21.62996094 113.81681641 -23.1015625 113.18359375 C-38.36701752 106.09192034 -48.94379486 95.23086878 -55.21484375 79.51953125 C-57.48063612 72.33997229 -58.55391191 65.59168375 -58.5 58.0625 C-58.49436035 57.23105469 -58.4887207 56.39960938 -58.48291016 55.54296875 C-58.17487601 39.90337362 -51.22535838 26.62630382 -40.31640625 15.53515625 C-28.52074489 4.68884389 -15.82469404 0.12458302 0 0 Z M-15.1875 5.4375 C-16.02539062 5.68242187 -16.86328125 5.92734375 -17.7265625 6.1796875 C-31.61013552 10.59896567 -42.84526743 20.5641796 -49.5625 33.4375 C-50.46964008 35.42312884 -51.34710766 37.42271323 -52.1875 39.4375 C-52.5278125 40.23671875 -52.868125 41.0359375 -53.21875 41.859375 C-57.66705733 54.1334082 -56.03196517 69.55091695 -50.93359375 81.3359375 C-42.97702391 96.81547664 -31.64320106 106.74035535 -15.1875 112.4375 C-10.48793712 113.8087675 -5.86060253 113.62162224 -1 113.625 C0.3622168 113.64336914 0.3622168 113.64336914 1.75195312 113.66210938 C17.20734374 113.69529919 29.20367214 107.83790231 40.37109375 97.109375 C53.09447933 83.18490182 55.63860222 68.08785117 54.99169922 49.94238281 C54.33527153 40.76670418 49.950008 32.87713183 44.8125 25.4375 C44.39613281 24.82390625 43.97976563 24.2103125 43.55078125 23.578125 C35.02795282 12.41910639 20.41903111 5.52594431 6.8125 3.4375 C-0.75791272 3.04857796 -7.98083852 2.95931997 -15.1875 5.4375 Z " fill="#94AFCA" transform="translate(242.1875,187.5625)"/>
<path d="M0 0 C2.22244836 1.11122418 4.33068595 2.21166128 6.42808533 3.55413818 C11.49748409 5.60616092 16.10768355 5.3834671 21.52563477 5.32128906 C22.67915436 5.32023666 23.83267395 5.31918427 25.02114868 5.31809998 C27.52073904 5.3144975 30.02032665 5.3043587 32.51986885 5.28842926 C36.47467096 5.26543156 40.42891452 5.2643052 44.3837738 5.26971436 C55.62601705 5.28328676 66.8679939 5.26557586 78.11010742 5.20947266 C84.99015158 5.17539821 91.86950126 5.17802668 98.74958611 5.20049286 C101.37189028 5.2022439 103.99423655 5.19093139 106.61642647 5.16638947 C110.27965681 5.13291052 113.94047939 5.14218652 117.60375977 5.16113281 C118.689095 5.14060349 119.77443024 5.12007416 120.89265442 5.09892273 C128.05798279 5.19714764 128.05798279 5.19714764 130.81181145 7.54415131 C132.57692706 9.91781316 134 11.96752321 134 15 C119.17863479 15.09366332 104.35730905 15.16408652 89.53570747 15.20724869 C82.65293578 15.22782713 75.77034856 15.25585659 68.88769531 15.30175781 C62.24170231 15.34605939 55.59585012 15.36915897 48.94970322 15.37950897 C46.41804876 15.38688197 43.8864044 15.40127964 41.3548317 15.42292023 C37.80029171 15.45208844 34.24653554 15.45595024 30.69189453 15.45410156 C29.65251236 15.46848267 28.61313019 15.48286377 27.54225159 15.49768066 C19.43888994 15.45227739 12.98679517 13.51341434 6.125 9.1875 C3.38352716 6.36539561 1.81185777 3.48950385 0 0 Z " fill="#C5D4E2" transform="translate(53,274)"/>
<path d="M0 0 C1.48906862 0.74582021 2.97863957 1.49063847 4.46875 2.234375 C5.17128906 2.58822266 5.87382812 2.94207031 6.59765625 3.30664062 C14.60789587 7.27886417 22.0855056 7.40863327 30.875 7.375 C31.87789062 7.37886719 32.88078125 7.38273437 33.9140625 7.38671875 C39.5428836 7.37935118 44.93145989 7.06338226 50.5 6.25 C51.5725 6.1675 52.645 6.085 53.75 6 C60.15705934 4.71858813 66.66169493 2.22504178 72.04296875 -1.51953125 C74.5 -2.75 74.5 -2.75 77.10546875 -2.23828125 C77.95753906 -1.85027344 78.80960937 -1.46226562 79.6875 -1.0625 C80.54730469 -0.68738281 81.40710938 -0.31226563 82.29296875 0.07421875 C84.5 1.25 84.5 1.25 86.5 3.25 C86.375 5.1875 86.375 5.1875 85.5 7.25 C74.25736476 17.08730583 52.75971534 15.77550317 38.5 16.25 C37.46601074 16.28504639 37.46601074 16.28504639 36.41113281 16.32080078 C-6.92863201 17.5623588 -6.92863201 17.5623588 -22.5 7.25 C-22.5 5 -22.5 5 -21.5 2.25 C-18.99849102 0.52582909 -16.30738725 -0.61012113 -13.5 -1.75 C-12.76265625 -2.19472656 -12.0253125 -2.63945312 -11.265625 -3.09765625 C-6.86986706 -4.13450876 -3.87722708 -2.02231879 0 0 Z " fill="#95B0CB" transform="translate(210.5,306.75)"/>
<path d="M0 0 C41.91 0 83.82 0 127 0 C127 1.65 127 3.3 127 5 C85.09 5 43.18 5 0 5 C0 3.35 0 1.7 0 0 Z " fill="#85A4C3" transform="translate(91,103)"/>
<path d="M0 0 C14.61448818 4.25810124 25.82229599 17.09807705 33 30 C42.06014674 46.71695554 43.70760348 66.00402346 38.3203125 84.1484375 C33.27006303 99.562947 24.15630876 111.60570763 11 121 C10.35546875 121.47050781 9.7109375 121.94101562 9.046875 122.42578125 C3.41338452 126.24850693 -5.49419744 131.69206771 -12.390625 130.6328125 C-12.92171875 130.42398438 -13.4528125 130.21515625 -14 130 C-13.02160156 129.56429687 -12.04320312 129.12859375 -11.03515625 128.6796875 C10.10550224 119.13534168 23.73086619 106.80700978 32.29296875 84.95581055 C38.1946209 68.63048756 36.24862693 49.33712579 29.5625 33.62109375 C23.04353994 20.34811496 11.70564207 7.97425424 -2 2 C-1.34 1.34 -0.68 0.68 0 0 Z " fill="#BDCDDE" transform="translate(275,183)"/>
<path d="M0 0 C1.46566406 -0.00386719 1.46566406 -0.00386719 2.9609375 -0.0078125 C3.98445312 -0.00007812 5.00796875 0.00765625 6.0625 0.015625 C7.08601562 0.00789062 8.10953125 0.00015625 9.1640625 -0.0078125 C10.14117187 -0.00523437 11.11828125 -0.00265625 12.125 0 C13.02347656 0.00225586 13.92195313 0.00451172 14.84765625 0.00683594 C17.0625 0.265625 17.0625 0.265625 19.0625 2.265625 C19.32128906 4.296875 19.32128906 4.296875 19.328125 6.765625 C19.33199219 8.0959375 19.33199219 8.0959375 19.3359375 9.453125 C19.32820313 10.38125 19.32046875 11.309375 19.3125 12.265625 C19.32023437 13.19375 19.32796875 14.121875 19.3359375 15.078125 C19.33335937 15.965 19.33078125 16.851875 19.328125 17.765625 C19.32586914 18.5803125 19.32361328 19.395 19.32128906 20.234375 C19.0625 22.265625 19.0625 22.265625 17.0625 24.265625 C14.84765625 24.52441406 14.84765625 24.52441406 12.125 24.53125 C11.14789063 24.53382813 10.17078125 24.53640625 9.1640625 24.5390625 C8.14054688 24.53132813 7.11703125 24.52359375 6.0625 24.515625 C5.03898438 24.52335937 4.01546875 24.53109375 2.9609375 24.5390625 C1.98382813 24.53648437 1.00671875 24.53390625 0 24.53125 C-0.89847656 24.52899414 -1.79695312 24.52673828 -2.72265625 24.52441406 C-4.9375 24.265625 -4.9375 24.265625 -6.9375 22.265625 C-7.19628906 20.234375 -7.19628906 20.234375 -7.203125 17.765625 C-7.20570313 16.87875 -7.20828125 15.991875 -7.2109375 15.078125 C-7.19933594 13.6859375 -7.19933594 13.6859375 -7.1875 12.265625 C-7.19523438 11.3375 -7.20296875 10.409375 -7.2109375 9.453125 C-7.20835937 8.56625 -7.20578125 7.679375 -7.203125 6.765625 C-7.20086914 5.9509375 -7.19861328 5.13625 -7.19628906 4.296875 C-6.62867281 -0.15837712 -3.78591263 0.00950552 0 0 Z " fill="#9AB3CD" transform="translate(225.9375,137.734375)"/>
<path d="M0 0 C1.02802734 -0.01224609 2.05605469 -0.02449219 3.11523438 -0.03710938 C4.58766602 -0.04000977 4.58766602 -0.04000977 6.08984375 -0.04296875 C6.99468506 -0.04707764 7.89952637 -0.05118652 8.83178711 -0.05541992 C11.0625 0.1875 11.0625 0.1875 13.0625 2.1875 C13.32128906 4.21875 13.32128906 4.21875 13.328125 6.6875 C13.33199219 8.0178125 13.33199219 8.0178125 13.3359375 9.375 C13.32820313 10.303125 13.32046875 11.23125 13.3125 12.1875 C13.32023437 13.115625 13.32796875 14.04375 13.3359375 15 C13.33335937 15.886875 13.33078125 16.77375 13.328125 17.6875 C13.32586914 18.5021875 13.32361328 19.316875 13.32128906 20.15625 C13.0625 22.1875 13.0625 22.1875 11.0625 24.1875 C8.83178711 24.43041992 8.83178711 24.43041992 6.08984375 24.41796875 C5.10822266 24.41603516 4.12660156 24.41410156 3.11523438 24.41210938 C2.08720703 24.39986328 1.05917969 24.38761719 0 24.375 C-1.03189453 24.37435547 -2.06378906 24.37371094 -3.12695312 24.37304688 C-10.79734003 24.32765997 -10.79734003 24.32765997 -11.9375 23.1875 C-12.0366657 21.56492456 -12.06829777 19.93810169 -12.0703125 18.3125 C-12.07160156 17.32765625 -12.07289063 16.3428125 -12.07421875 15.328125 C-12.07035156 14.29171875 -12.06648437 13.2553125 -12.0625 12.1875 C-12.06830078 10.63289062 -12.06830078 10.63289062 -12.07421875 9.046875 C-12.07292969 8.06203125 -12.07164062 7.0771875 -12.0703125 6.0625 C-12.06918457 5.15242187 -12.06805664 4.24234375 -12.06689453 3.3046875 C-11.74041801 -2.03720761 -4.0617918 0.00253703 0 0 Z " fill="#98B2CC" transform="translate(192.9375,137.8125)"/>
<path d="M0 0 C1.35726196 0.00616333 1.35726196 0.00616333 2.74194336 0.01245117 C3.72356445 0.01438477 4.70518555 0.01631836 5.71655273 0.01831055 C6.74458008 0.03055664 7.77260742 0.04280273 8.83178711 0.05541992 C9.86368164 0.05606445 10.89557617 0.05670898 11.95874023 0.05737305 C19.62912714 0.10275995 19.62912714 0.10275995 20.76928711 1.24291992 C20.86845281 2.86549537 20.90008488 4.49231823 20.90209961 6.11791992 C20.9040332 7.59518555 20.9040332 7.59518555 20.90600586 9.10229492 C20.90213867 10.13870117 20.89827148 11.17510742 20.89428711 12.24291992 C20.90008789 13.7975293 20.90008789 13.7975293 20.90600586 15.38354492 C20.9047168 16.36838867 20.90342773 17.35323242 20.90209961 18.36791992 C20.90097168 19.27799805 20.89984375 20.18807617 20.89868164 21.12573242 C20.76928711 23.24291992 20.76928711 23.24291992 19.76928711 24.24291992 C16.13029536 24.49448261 12.47845038 24.42814218 8.83178711 24.43041992 C7.80375977 24.44266602 6.77573242 24.45491211 5.71655273 24.4675293 C4.24412109 24.47042969 4.24412109 24.47042969 2.74194336 24.47338867 C1.3846814 24.479552 1.3846814 24.479552 0 24.48583984 C-2.23071289 24.24291992 -2.23071289 24.24291992 -4.23071289 22.24291992 C-4.48950195 20.21166992 -4.48950195 20.21166992 -4.49633789 17.74291992 C-4.49891602 16.85604492 -4.50149414 15.96916992 -4.50415039 15.05541992 C-4.49254883 13.66323242 -4.49254883 13.66323242 -4.48071289 12.24291992 C-4.48844727 11.31479492 -4.49618164 10.38666992 -4.50415039 9.43041992 C-4.50157227 8.54354492 -4.49899414 7.65666992 -4.49633789 6.74291992 C-4.49408203 5.92823242 -4.49182617 5.11354492 -4.48950195 4.27416992 C-4.10103317 1.22505642 -3.0164717 0.3284874 0 0 Z " fill="#98B2CC" transform="translate(68.230712890625,137.757080078125)"/>
<path d="M0 0 C0.93199219 -0.00257813 1.86398438 -0.00515625 2.82421875 -0.0078125 C3.80003906 -0.00007812 4.77585938 0.00765625 5.78125 0.015625 C6.75707031 0.00789062 7.73289063 0.00015625 8.73828125 -0.0078125 C9.67027344 -0.00523437 10.60226563 -0.00265625 11.5625 0 C12.41908203 0.00225586 13.27566406 0.00451172 14.15820312 0.00683594 C16.28125 0.265625 16.28125 0.265625 18.28125 2.265625 C18.54003906 4.296875 18.54003906 4.296875 18.546875 6.765625 C18.55074219 8.0959375 18.55074219 8.0959375 18.5546875 9.453125 C18.54695313 10.38125 18.53921875 11.309375 18.53125 12.265625 C18.53898437 13.19375 18.54671875 14.121875 18.5546875 15.078125 C18.55210937 15.965 18.54953125 16.851875 18.546875 17.765625 C18.54461914 18.5803125 18.54236328 19.395 18.54003906 20.234375 C18.28125 22.265625 18.28125 22.265625 16.28125 24.265625 C14.03466797 24.49267578 14.03466797 24.49267578 11.2734375 24.4609375 C10.28730469 24.45449219 9.30117187 24.44804687 8.28515625 24.44140625 C6.73634766 24.41626953 6.73634766 24.41626953 5.15625 24.390625 C4.11597656 24.38160156 3.07570312 24.37257812 2.00390625 24.36328125 C-0.57054092 24.33966247 -3.14453212 24.30672649 -5.71875 24.265625 C-7.54546197 20.61220106 -6.90345722 16.28723341 -6.90625 12.265625 C-6.91849609 11.3375 -6.93074219 10.409375 -6.94335938 9.453125 C-6.94529297 8.56625 -6.94722656 7.679375 -6.94921875 6.765625 C-6.95332764 5.9509375 -6.95743652 5.13625 -6.96166992 4.296875 C-6.44006292 -0.06470317 -3.71639538 0.00978735 0 0 Z " fill="#98B2CC" transform="translate(148.71875,137.734375)"/>
<path d="M0 0 C0.93199219 -0.00257813 1.86398438 -0.00515625 2.82421875 -0.0078125 C3.80003906 -0.00007812 4.77585937 0.00765625 5.78125 0.015625 C6.75707031 0.00789062 7.73289062 0.00015625 8.73828125 -0.0078125 C9.67027344 -0.00523437 10.60226563 -0.00265625 11.5625 0 C12.41908203 0.00225586 13.27566406 0.00451172 14.15820312 0.00683594 C16.28125 0.265625 16.28125 0.265625 18.28125 2.265625 C18.54003906 4.296875 18.54003906 4.296875 18.546875 6.765625 C18.55074219 8.0959375 18.55074219 8.0959375 18.5546875 9.453125 C18.54695313 10.38125 18.53921875 11.309375 18.53125 12.265625 C18.53898437 13.19375 18.54671875 14.121875 18.5546875 15.078125 C18.55210937 15.965 18.54953125 16.851875 18.546875 17.765625 C18.54461914 18.5803125 18.54236328 19.395 18.54003906 20.234375 C18.28125 22.265625 18.28125 22.265625 16.28125 24.265625 C14.03466797 24.49267578 14.03466797 24.49267578 11.2734375 24.4609375 C10.28730469 24.45449219 9.30117187 24.44804687 8.28515625 24.44140625 C6.73634766 24.41626953 6.73634766 24.41626953 5.15625 24.390625 C4.11597656 24.38160156 3.07570313 24.37257812 2.00390625 24.36328125 C-0.57054092 24.33966247 -3.14453212 24.30672649 -5.71875 24.265625 C-7.54546197 20.61220106 -6.90345722 16.28723341 -6.90625 12.265625 C-6.91849609 11.3375 -6.93074219 10.409375 -6.94335938 9.453125 C-6.94529297 8.56625 -6.94722656 7.679375 -6.94921875 6.765625 C-6.95332764 5.9509375 -6.95743652 5.13625 -6.96166992 4.296875 C-6.44006292 -0.06470317 -3.71639538 0.00978735 0 0 Z " fill="#98B2CC" transform="translate(109.71875,137.734375)"/>
<path d="M0 0 C1.02996094 -0.00128906 2.05992188 -0.00257813 3.12109375 -0.00390625 C4.74724609 0.00189453 4.74724609 0.00189453 6.40625 0.0078125 C7.49035156 0.00394531 8.57445313 0.00007812 9.69140625 -0.00390625 C10.72136719 -0.00261719 11.75132813 -0.00132812 12.8125 0 C14.24045898 0.00169189 14.24045898 0.00169189 15.69726562 0.00341797 C17.90625 0.1328125 17.90625 0.1328125 18.90625 1.1328125 C19.00524523 2.68236809 19.03704524 4.23634923 19.0390625 5.7890625 C19.04099609 7.19865234 19.04099609 7.19865234 19.04296875 8.63671875 C19.03910156 9.62542969 19.03523438 10.61414063 19.03125 11.6328125 C19.03705078 13.11587891 19.03705078 13.11587891 19.04296875 14.62890625 C19.04167969 15.56863281 19.04039062 16.50835937 19.0390625 17.4765625 C19.03793457 18.34474609 19.03680664 19.21292969 19.03564453 20.10742188 C18.90625 22.1328125 18.90625 22.1328125 17.90625 23.1328125 C16.21066274 23.23213403 14.51099253 23.26361257 12.8125 23.265625 C11.78253906 23.26691406 10.75257812 23.26820313 9.69140625 23.26953125 C8.06525391 23.26373047 8.06525391 23.26373047 6.40625 23.2578125 C5.32214844 23.26167969 4.23804687 23.26554687 3.12109375 23.26953125 C2.09113281 23.26824219 1.06117187 23.26695312 0 23.265625 C-0.95197266 23.26449707 -1.90394531 23.26336914 -2.88476562 23.26220703 C-5.09375 23.1328125 -5.09375 23.1328125 -6.09375 22.1328125 C-6.19274523 20.58325691 -6.22454524 19.02927577 -6.2265625 17.4765625 C-6.22785156 16.53683594 -6.22914062 15.59710938 -6.23046875 14.62890625 C-6.22660156 13.64019531 -6.22273438 12.65148437 -6.21875 11.6328125 C-6.22261719 10.64410156 -6.22648437 9.65539062 -6.23046875 8.63671875 C-6.22917969 7.69699219 -6.22789063 6.75726563 -6.2265625 5.7890625 C-6.22543457 4.92087891 -6.22430664 4.05269531 -6.22314453 3.15820312 C-5.96545565 -0.87535716 -3.46552138 0.00410607 0 0 Z " fill="#96B0CB" transform="translate(109.09375,239.8671875)"/>
<path d="M0 0 C1.02996094 -0.00128906 2.05992187 -0.00257813 3.12109375 -0.00390625 C4.74724609 0.00189453 4.74724609 0.00189453 6.40625 0.0078125 C7.49035156 0.00394531 8.57445312 0.00007812 9.69140625 -0.00390625 C10.72136719 -0.00261719 11.75132812 -0.00132812 12.8125 0 C14.24045898 0.00169189 14.24045898 0.00169189 15.69726562 0.00341797 C17.90625 0.1328125 17.90625 0.1328125 18.90625 1.1328125 C19.00524523 2.68236809 19.03704524 4.23634923 19.0390625 5.7890625 C19.04099609 7.19865234 19.04099609 7.19865234 19.04296875 8.63671875 C19.03910156 9.62542969 19.03523438 10.61414063 19.03125 11.6328125 C19.03705078 13.11587891 19.03705078 13.11587891 19.04296875 14.62890625 C19.04167969 15.56863281 19.04039062 16.50835937 19.0390625 17.4765625 C19.03793457 18.34474609 19.03680664 19.21292969 19.03564453 20.10742188 C18.90625 22.1328125 18.90625 22.1328125 17.90625 23.1328125 C16.21066274 23.23213403 14.51099253 23.26361257 12.8125 23.265625 C11.78253906 23.26691406 10.75257813 23.26820313 9.69140625 23.26953125 C8.06525391 23.26373047 8.06525391 23.26373047 6.40625 23.2578125 C5.32214844 23.26167969 4.23804688 23.26554687 3.12109375 23.26953125 C2.09113281 23.26824219 1.06117188 23.26695312 0 23.265625 C-0.95197266 23.26449707 -1.90394531 23.26336914 -2.88476562 23.26220703 C-5.09375 23.1328125 -5.09375 23.1328125 -6.09375 22.1328125 C-6.19274523 20.58325691 -6.22454524 19.02927577 -6.2265625 17.4765625 C-6.22785156 16.53683594 -6.22914063 15.59710938 -6.23046875 14.62890625 C-6.22660156 13.64019531 -6.22273437 12.65148437 -6.21875 11.6328125 C-6.22261719 10.64410156 -6.22648438 9.65539062 -6.23046875 8.63671875 C-6.22917969 7.69699219 -6.22789062 6.75726563 -6.2265625 5.7890625 C-6.22543457 4.92087891 -6.22430664 4.05269531 -6.22314453 3.15820312 C-5.96545565 -0.87535716 -3.46552138 0.00410607 0 0 Z " fill="#96B0CB" transform="translate(148.09375,205.8671875)"/>
<path d="M0 0 C1.02996094 -0.00128906 2.05992188 -0.00257813 3.12109375 -0.00390625 C4.74724609 0.00189453 4.74724609 0.00189453 6.40625 0.0078125 C7.49035156 0.00394531 8.57445313 0.00007812 9.69140625 -0.00390625 C10.72136719 -0.00261719 11.75132813 -0.00132812 12.8125 0 C14.24045898 0.00169189 14.24045898 0.00169189 15.69726562 0.00341797 C17.90625 0.1328125 17.90625 0.1328125 18.90625 1.1328125 C19.00524523 2.68236809 19.03704524 4.23634923 19.0390625 5.7890625 C19.04099609 7.19865234 19.04099609 7.19865234 19.04296875 8.63671875 C19.03910156 9.62542969 19.03523438 10.61414063 19.03125 11.6328125 C19.03705078 13.11587891 19.03705078 13.11587891 19.04296875 14.62890625 C19.04167969 15.56863281 19.04039062 16.50835937 19.0390625 17.4765625 C19.03793457 18.34474609 19.03680664 19.21292969 19.03564453 20.10742188 C18.90625 22.1328125 18.90625 22.1328125 17.90625 23.1328125 C16.21066274 23.23213403 14.51099253 23.26361257 12.8125 23.265625 C11.78253906 23.26691406 10.75257812 23.26820313 9.69140625 23.26953125 C8.06525391 23.26373047 8.06525391 23.26373047 6.40625 23.2578125 C5.32214844 23.26167969 4.23804687 23.26554687 3.12109375 23.26953125 C2.09113281 23.26824219 1.06117187 23.26695312 0 23.265625 C-0.95197266 23.26449707 -1.90394531 23.26336914 -2.88476562 23.26220703 C-5.09375 23.1328125 -5.09375 23.1328125 -6.09375 22.1328125 C-6.19274523 20.58325691 -6.22454524 19.02927577 -6.2265625 17.4765625 C-6.22785156 16.53683594 -6.22914062 15.59710938 -6.23046875 14.62890625 C-6.22660156 13.64019531 -6.22273438 12.65148437 -6.21875 11.6328125 C-6.22261719 10.64410156 -6.22648437 9.65539062 -6.23046875 8.63671875 C-6.22917969 7.69699219 -6.22789063 6.75726563 -6.2265625 5.7890625 C-6.22543457 4.92087891 -6.22430664 4.05269531 -6.22314453 3.15820312 C-5.96545565 -0.87535716 -3.46552138 0.00410607 0 0 Z " fill="#96B0CB" transform="translate(109.09375,205.8671875)"/>
<path d="M0 0 C1.02996094 -0.00128906 2.05992188 -0.00257813 3.12109375 -0.00390625 C4.74724609 0.00189453 4.74724609 0.00189453 6.40625 0.0078125 C7.49035156 0.00394531 8.57445313 0.00007812 9.69140625 -0.00390625 C10.72136719 -0.00261719 11.75132813 -0.00132812 12.8125 0 C14.24045898 0.00169189 14.24045898 0.00169189 15.69726562 0.00341797 C17.90625 0.1328125 17.90625 0.1328125 18.90625 1.1328125 C19.00524523 2.68236809 19.03704524 4.23634923 19.0390625 5.7890625 C19.04099609 7.19865234 19.04099609 7.19865234 19.04296875 8.63671875 C19.03910156 9.62542969 19.03523438 10.61414063 19.03125 11.6328125 C19.03705078 13.11587891 19.03705078 13.11587891 19.04296875 14.62890625 C19.04167969 15.56863281 19.04039063 16.50835937 19.0390625 17.4765625 C19.03793457 18.34474609 19.03680664 19.21292969 19.03564453 20.10742188 C18.90625 22.1328125 18.90625 22.1328125 17.90625 23.1328125 C16.21066274 23.23213403 14.51099253 23.26361257 12.8125 23.265625 C11.78253906 23.26691406 10.75257812 23.26820313 9.69140625 23.26953125 C8.06525391 23.26373047 8.06525391 23.26373047 6.40625 23.2578125 C5.32214844 23.26167969 4.23804687 23.26554687 3.12109375 23.26953125 C2.09113281 23.26824219 1.06117187 23.26695312 0 23.265625 C-0.95197266 23.26449707 -1.90394531 23.26336914 -2.88476562 23.26220703 C-5.09375 23.1328125 -5.09375 23.1328125 -6.09375 22.1328125 C-6.19274523 20.58325691 -6.22454524 19.02927577 -6.2265625 17.4765625 C-6.22785156 16.53683594 -6.22914062 15.59710938 -6.23046875 14.62890625 C-6.22660156 13.64019531 -6.22273438 12.65148437 -6.21875 11.6328125 C-6.22261719 10.64410156 -6.22648437 9.65539062 -6.23046875 8.63671875 C-6.22917969 7.69699219 -6.22789063 6.75726563 -6.2265625 5.7890625 C-6.22543457 4.92087891 -6.22430664 4.05269531 -6.22314453 3.15820312 C-5.96545565 -0.87535716 -3.46552138 0.00410607 0 0 Z " fill="#96B0CB" transform="translate(70.09375,205.8671875)"/>
<path d="M0 0 C1.02996094 -0.00128906 2.05992188 -0.00257813 3.12109375 -0.00390625 C4.74724609 0.00189453 4.74724609 0.00189453 6.40625 0.0078125 C7.49035156 0.00394531 8.57445313 0.00007812 9.69140625 -0.00390625 C10.72136719 -0.00261719 11.75132813 -0.00132812 12.8125 0 C14.24045898 0.00169189 14.24045898 0.00169189 15.69726562 0.00341797 C17.90625 0.1328125 17.90625 0.1328125 18.90625 1.1328125 C19.00524523 2.68236809 19.03704524 4.23634923 19.0390625 5.7890625 C19.04099609 7.19865234 19.04099609 7.19865234 19.04296875 8.63671875 C19.03910156 9.62542969 19.03523438 10.61414063 19.03125 11.6328125 C19.03705078 13.11587891 19.03705078 13.11587891 19.04296875 14.62890625 C19.04167969 15.56863281 19.04039062 16.50835937 19.0390625 17.4765625 C19.03793457 18.34474609 19.03680664 19.21292969 19.03564453 20.10742188 C18.90625 22.1328125 18.90625 22.1328125 17.90625 23.1328125 C16.21066274 23.23213403 14.51099253 23.26361257 12.8125 23.265625 C11.78253906 23.26691406 10.75257812 23.26820313 9.69140625 23.26953125 C8.06525391 23.26373047 8.06525391 23.26373047 6.40625 23.2578125 C5.32214844 23.26167969 4.23804687 23.26554687 3.12109375 23.26953125 C2.09113281 23.26824219 1.06117187 23.26695312 0 23.265625 C-0.95197266 23.26449707 -1.90394531 23.26336914 -2.88476562 23.26220703 C-5.09375 23.1328125 -5.09375 23.1328125 -6.09375 22.1328125 C-6.19274523 20.58325691 -6.22454524 19.02927577 -6.2265625 17.4765625 C-6.22785156 16.53683594 -6.22914062 15.59710938 -6.23046875 14.62890625 C-6.22660156 13.64019531 -6.22273438 12.65148437 -6.21875 11.6328125 C-6.22261719 10.64410156 -6.22648437 9.65539062 -6.23046875 8.63671875 C-6.22917969 7.69699219 -6.22789063 6.75726563 -6.2265625 5.7890625 C-6.22543457 4.92087891 -6.22430664 4.05269531 -6.22314453 3.15820312 C-5.96545565 -0.87535716 -3.46552138 0.00410607 0 0 Z " fill="#FE6703" transform="translate(109.09375,171.8671875)"/>
<path d="M0 0 C1.02996094 -0.00128906 2.05992187 -0.00257813 3.12109375 -0.00390625 C4.74724609 0.00189453 4.74724609 0.00189453 6.40625 0.0078125 C7.49035156 0.00394531 8.57445312 0.00007812 9.69140625 -0.00390625 C10.72136719 -0.00261719 11.75132812 -0.00132812 12.8125 0 C14.24045898 0.00169189 14.24045898 0.00169189 15.69726562 0.00341797 C17.90625 0.1328125 17.90625 0.1328125 18.90625 1.1328125 C18.99310603 2.69453995 19.01327219 4.26010594 19.00390625 5.82421875 C19.00068359 6.76845703 18.99746094 7.71269531 18.99414062 8.68554688 C18.98576172 9.67876953 18.97738281 10.67199219 18.96875 11.6953125 C18.96423828 12.69240234 18.95972656 13.68949219 18.95507812 14.71679688 C18.94325007 17.18886099 18.92676849 19.66080768 18.90625 22.1328125 C16.41629335 23.37779083 14.71630089 23.26215622 11.93359375 23.265625 C10.46116211 23.26755859 10.46116211 23.26755859 8.95898438 23.26953125 C7.93095703 23.26566406 6.90292969 23.26179688 5.84375 23.2578125 C4.81185547 23.26167969 3.77996094 23.26554687 2.71679688 23.26953125 C1.73646484 23.26824219 0.75613281 23.26695312 -0.25390625 23.265625 C-1.15761963 23.26449707 -2.06133301 23.26336914 -2.99243164 23.26220703 C-5.09375 23.1328125 -5.09375 23.1328125 -6.09375 22.1328125 C-6.19274523 20.58325691 -6.22454524 19.02927577 -6.2265625 17.4765625 C-6.22785156 16.53683594 -6.22914063 15.59710938 -6.23046875 14.62890625 C-6.22660156 13.64019531 -6.22273437 12.65148437 -6.21875 11.6328125 C-6.22261719 10.64410156 -6.22648438 9.65539062 -6.23046875 8.63671875 C-6.22917969 7.69699219 -6.22789062 6.75726563 -6.2265625 5.7890625 C-6.22543457 4.92087891 -6.22430664 4.05269531 -6.22314453 3.15820312 C-5.96545565 -0.87535716 -3.46552138 0.00410607 0 0 Z " fill="#96B0CB" transform="translate(148.09375,239.8671875)"/>
<path d="M0 0 C1.02996094 -0.00128906 2.05992188 -0.00257813 3.12109375 -0.00390625 C4.74724609 0.00189453 4.74724609 0.00189453 6.40625 0.0078125 C7.49035156 0.00394531 8.57445313 0.00007812 9.69140625 -0.00390625 C10.72136719 -0.00261719 11.75132813 -0.00132812 12.8125 0 C14.24045898 0.00169189 14.24045898 0.00169189 15.69726562 0.00341797 C17.90625 0.1328125 17.90625 0.1328125 18.90625 1.1328125 C19.00524523 2.68236809 19.03704524 4.23634923 19.0390625 5.7890625 C19.04099609 7.19865234 19.04099609 7.19865234 19.04296875 8.63671875 C19.03910156 9.62542969 19.03523438 10.61414063 19.03125 11.6328125 C19.03705078 13.11587891 19.03705078 13.11587891 19.04296875 14.62890625 C19.04167969 15.56863281 19.04039063 16.50835937 19.0390625 17.4765625 C19.03793457 18.34474609 19.03680664 19.21292969 19.03564453 20.10742188 C18.90625 22.1328125 18.90625 22.1328125 17.90625 23.1328125 C16.19852642 23.21995081 14.48726351 23.23981257 12.77734375 23.23046875 C11.22563477 23.22563477 11.22563477 23.22563477 9.64257812 23.22070312 C8.55396484 23.21232422 7.46535156 23.20394531 6.34375 23.1953125 C4.7050293 23.18854492 4.7050293 23.18854492 3.03320312 23.18164062 C0.32416505 23.16981076 -2.38476599 23.15332793 -5.09375 23.1328125 C-6.28594354 20.74842541 -6.22291022 19.25625248 -6.2265625 16.59765625 C-6.22785156 15.70626953 -6.22914062 14.81488281 -6.23046875 13.89648438 C-6.22660156 12.96384766 -6.22273438 12.03121094 -6.21875 11.0703125 C-6.22261719 10.13380859 -6.22648437 9.19730469 -6.23046875 8.23242188 C-6.22917969 7.34232422 -6.22789063 6.45222656 -6.2265625 5.53515625 C-6.22543457 4.71523193 -6.22430664 3.89530762 -6.22314453 3.05053711 C-5.95759251 -0.88514426 -3.34784273 0.00396664 0 0 Z " fill="#96B0CB" transform="translate(70.09375,239.8671875)"/>
<path d="M0 0 C0.98033203 -0.00128906 1.96066406 -0.00257813 2.97070312 -0.00390625 C4.51854492 0.00189453 4.51854492 0.00189453 6.09765625 0.0078125 C7.12568359 0.00394531 8.15371094 0.00007812 9.21289062 -0.00390625 C10.68532227 -0.00197266 10.68532227 -0.00197266 12.1875 0 C13.54476196 0.00169189 13.54476196 0.00169189 14.92944336 0.00341797 C17.16015625 0.1328125 17.16015625 0.1328125 19.16015625 1.1328125 C19.18903439 4.61196191 19.20691312 8.09108081 19.22265625 11.5703125 C19.23103516 12.56353516 19.23941406 13.55675781 19.24804688 14.58007812 C19.25288086 15.99643555 19.25288086 15.99643555 19.2578125 17.44140625 C19.26566772 18.75322876 19.26566772 18.75322876 19.27368164 20.09155273 C19.16015625 22.1328125 19.16015625 22.1328125 18.16015625 23.1328125 C16.46456899 23.23213403 14.76489878 23.26361257 13.06640625 23.265625 C12.03644531 23.26691406 11.00648438 23.26820313 9.9453125 23.26953125 C8.31916016 23.26373047 8.31916016 23.26373047 6.66015625 23.2578125 C5.57605469 23.26167969 4.49195313 23.26554687 3.375 23.26953125 C2.34503906 23.26824219 1.31507813 23.26695312 0.25390625 23.265625 C-0.69806641 23.26449707 -1.65003906 23.26336914 -2.63085938 23.26220703 C-4.83984375 23.1328125 -4.83984375 23.1328125 -5.83984375 22.1328125 C-5.93883898 20.58325691 -5.97063899 19.02927577 -5.97265625 17.4765625 C-5.97394531 16.53683594 -5.97523438 15.59710938 -5.9765625 14.62890625 C-5.97269531 13.64019531 -5.96882812 12.65148437 -5.96484375 11.6328125 C-5.96871094 10.64410156 -5.97257813 9.65539062 -5.9765625 8.63671875 C-5.97527344 7.69699219 -5.97398437 6.75726563 -5.97265625 5.7890625 C-5.97152832 4.92087891 -5.97040039 4.05269531 -5.96923828 3.15820312 C-5.71697237 -0.79047239 -3.41431857 0.00426143 0 0 Z " fill="#96B1CB" transform="translate(147.83984375,171.8671875)"/>
<path d="M0 0 C1.35726196 0.00616333 1.35726196 0.00616333 2.74194336 0.01245117 C3.72356445 0.01438477 4.70518555 0.01631836 5.71655273 0.01831055 C6.74458008 0.03055664 7.77260742 0.04280273 8.83178711 0.05541992 C9.86368164 0.05606445 10.89557617 0.05670898 11.95874023 0.05737305 C19.62912714 0.10275995 19.62912714 0.10275995 20.76928711 1.24291992 C20.86828234 2.79247551 20.90008235 4.34645665 20.90209961 5.89916992 C20.9040332 7.30875977 20.9040332 7.30875977 20.90600586 8.74682617 C20.90213867 9.73553711 20.89827148 10.72424805 20.89428711 11.74291992 C20.90008789 13.22598633 20.90008789 13.22598633 20.90600586 14.73901367 C20.9047168 15.67874023 20.90342773 16.6184668 20.90209961 17.58666992 C20.90097168 18.45485352 20.89984375 19.32303711 20.89868164 20.2175293 C20.76928711 22.24291992 20.76928711 22.24291992 19.76928711 23.24291992 C18.07369985 23.34224146 16.37402964 23.37371999 14.67553711 23.37573242 C13.64557617 23.37702148 12.61561523 23.37831055 11.55444336 23.37963867 C9.92829102 23.37383789 9.92829102 23.37383789 8.26928711 23.36791992 C7.18518555 23.37178711 6.10108398 23.3756543 4.98413086 23.37963867 C3.95416992 23.37834961 2.92420898 23.37706055 1.86303711 23.37573242 C0.91106445 23.37460449 -0.0409082 23.37347656 -1.02172852 23.37231445 C-3.23071289 23.24291992 -3.23071289 23.24291992 -4.23071289 22.24291992 C-4.48107263 18.93775058 -4.41593241 15.61895951 -4.41821289 12.30541992 C-4.43045898 11.3727832 -4.44270508 10.44014648 -4.45532227 9.47924805 C-4.45725586 8.58786133 -4.45918945 7.69647461 -4.46118164 6.77807617 C-4.46734497 5.5464978 -4.46734497 5.5464978 -4.47363281 4.29003906 C-4.11017771 1.22715357 -3.02674048 0.32960564 0 0 Z " fill="#96B1CB" transform="translate(68.230712890625,171.757080078125)"/>
<path d="M0 0 C1.46566406 -0.00386719 1.46566406 -0.00386719 2.9609375 -0.0078125 C3.98445312 -0.00007812 5.00796875 0.00765625 6.0625 0.015625 C7.08601562 0.00789062 8.10953125 0.00015625 9.1640625 -0.0078125 C10.14117187 -0.00523437 11.11828125 -0.00265625 12.125 0 C13.02347656 0.00225586 13.92195313 0.00451172 14.84765625 0.00683594 C17.0625 0.265625 17.0625 0.265625 19.0625 2.265625 C20.00597613 7.09065059 20.07188077 11.45003758 19.0625 16.265625 C15.29565388 21.35675296 10.73288819 23.85479605 4.5078125 24.8125 C1.25114436 24.88503158 -1.73142274 24.84168012 -4.9375 24.265625 C-7.38736932 21.81575568 -7.19381311 21.128547 -7.203125 17.765625 C-7.20570313 16.87875 -7.20828125 15.991875 -7.2109375 15.078125 C-7.19933594 13.6859375 -7.19933594 13.6859375 -7.1875 12.265625 C-7.19523438 11.3375 -7.20296875 10.409375 -7.2109375 9.453125 C-7.20835937 8.56625 -7.20578125 7.679375 -7.203125 6.765625 C-7.20086914 5.9509375 -7.19861328 5.13625 -7.19628906 4.296875 C-6.62867281 -0.15837712 -3.78591263 0.00950552 0 0 Z " fill="#99B3CD" transform="translate(186.9375,171.734375)"/>
<path d="M0 0 C0.99 0 1.98 0 3 0 C3.00410889 1.00901367 3.00821777 2.01802734 3.01245117 3.05761719 C3.03425329 6.80780852 3.08855218 10.5569522 3.15258789 14.30664062 C3.17575884 15.92828313 3.19016154 17.55007593 3.19555664 19.171875 C3.20485373 21.50615996 3.245853 23.83808441 3.29296875 26.171875 C3.2890361 26.89493835 3.28510345 27.61800171 3.28105164 28.36297607 C3.29570493 30.69239032 3.29570493 30.69239032 4 34 C6.41979501 36.33362157 6.41979501 36.33362157 9 38 C9.3125 40.75 9.3125 40.75 9 43 C9.77601563 43.23460937 10.55203125 43.46921875 11.3515625 43.7109375 C16.15734789 45.40891306 20.74081724 47.50953854 25.375 49.625 C26.30183594 50.04523438 27.22867188 50.46546875 28.18359375 50.8984375 C30.45694599 51.92964882 32.72902406 52.96356863 35 54 C34.67 55.65 34.34 57.3 34 59 C30.28464947 58.39056421 27.23536612 57.32943838 23.83984375 55.71484375 C22.88142578 55.26689453 21.92300781 54.81894531 20.93554688 54.35742188 C18.93214658 53.40858017 16.92954475 52.45805081 14.92773438 51.50585938 C13.97060547 51.05919922 13.01347656 50.61253906 12.02734375 50.15234375 C11.15843506 49.73976318 10.28952637 49.32718262 9.39428711 48.90209961 C6.80257673 47.76494897 6.80257673 47.76494897 3 48 C3 49.98 3 51.96 3 54 C1.68 53.67 0.36 53.34 -1 53 C-1 51.35 -1 49.7 -1 48 C-1.639375 47.773125 -2.27875 47.54625 -2.9375 47.3125 C-5 46 -5 46 -5.75 43.375 C-5.8325 42.59125 -5.915 41.8075 -6 41 C-7.32 40.67 -8.64 40.34 -10 40 C-10.33 38.68 -10.66 37.36 -11 36 C-10.2575 35.855625 -9.515 35.71125 -8.75 35.5625 C-6.47914894 35.09800774 -4.24539967 34.57094564 -2 34 C-1.97494385 33.00556885 -1.9498877 32.0111377 -1.92407227 30.98657227 C-1.83015118 27.30951253 -1.72989381 23.6326485 -1.62768555 19.95581055 C-1.58427854 18.362107 -1.54260781 16.7683552 -1.50268555 15.17456055 C-1.44512193 12.88836092 -1.38138851 10.60240551 -1.31640625 8.31640625 C-1.29969376 7.59973282 -1.28298126 6.88305939 -1.26576233 6.14466858 C-1.11387171 1.11387171 -1.11387171 1.11387171 0 0 Z " fill="#3C6D9D" transform="translate(241,205)"/>
<path d="M0 0 C41.91 0 83.82 0 127 0 C127 1.32 127 2.64 127 4 C85.09 4 43.18 4 0 4 C0 2.68 0 1.36 0 0 Z " fill="#91ADC9" transform="translate(91,114)"/>
<path d="M0 0 C1.46566406 -0.00386719 1.46566406 -0.00386719 2.9609375 -0.0078125 C3.98445312 -0.00007812 5.00796875 0.00765625 6.0625 0.015625 C7.08601562 0.00789062 8.10953125 0.00015625 9.1640625 -0.0078125 C10.14117187 -0.00523437 11.11828125 -0.00265625 12.125 0 C13.02347656 0.00225586 13.92195313 0.00451172 14.84765625 0.00683594 C17.0625 0.265625 17.0625 0.265625 19.0625 2.265625 C19.0625 3.255625 19.0625 4.245625 19.0625 5.265625 C17.88107422 5.32169922 17.88107422 5.32169922 16.67578125 5.37890625 C8.54240808 5.86979623 0.94296474 7.2148985 -6.9375 9.265625 C-7.0625 5.890625 -7.0625 5.890625 -6.9375 2.265625 C-4.40695663 -0.26491837 -3.50201118 0.00879271 0 0 Z " fill="#99B3CD" transform="translate(225.9375,171.734375)"/>
<path d="M0 0 C6 2 6 2 8 5 C8.1953125 8.35546875 8.1953125 8.35546875 8.125 12.1875 C8.10695312 13.45980469 8.08890625 14.73210938 8.0703125 16.04296875 C8.03550781 17.50669922 8.03550781 17.50669922 8 19 C5.36 19 2.72 19 0 19 C0 12.73 0 6.46 0 0 Z " fill="#C4D3E1" transform="translate(180,42)"/>
<path d="M0 0 C5 1 5 1 7 3 C7.14497985 5.58064129 7.18677545 8.04943884 7.125 10.625 C7.11597656 11.33140625 7.10695312 12.0378125 7.09765625 12.765625 C7.07407603 14.51056098 7.03820461 16.25532295 7 18 C4.69 18 2.38 18 0 18 C0 12.06 0 6.12 0 0 Z " fill="#C6D5E3" transform="translate(224,43)"/>
<path d="M0 0 C5 1 5 1 7 3 C7.14497985 5.58064129 7.18677545 8.04943884 7.125 10.625 C7.11597656 11.33140625 7.10695312 12.0378125 7.09765625 12.765625 C7.07407603 14.51056098 7.03820461 16.25532295 7 18 C4.69 18 2.38 18 0 18 C0 12.06 0 6.12 0 0 Z " fill="#C6D5E3" transform="translate(137,43)"/>
<path d="M0 0 C2.475 0.495 2.475 0.495 5 1 C7.49118953 4.7367843 7.2065226 6.74451819 7.125 11.1875 C7.10695313 12.45980469 7.08890625 13.73210938 7.0703125 15.04296875 C7.03550781 16.50669922 7.03550781 16.50669922 7 18 C4.69 18 2.38 18 0 18 C0 12.06 0 6.12 0 0 Z " fill="#C7D5E3" transform="translate(94,43)"/>
<path d="M0 0 C0.268125 0.598125 0.53625 1.19625 0.8125 1.8125 C2.42454127 4.84303169 2.42454127 4.84303169 5 7 C10.04565002 6.80862516 10.04565002 6.80862516 14 4 C14.69748583 2.68252676 15.36959957 1.35085807 16 0 C16.6875 1.6875 16.6875 1.6875 17 4 C14.73846154 8.63076923 14.73846154 8.63076923 12 10 C5.01748808 10.57233704 5.01748808 10.57233704 1 8.3125 C-1 6 -1 6 -1.375 3.3125 C-1 1 -1 1 0 0 Z " fill="#1A4672" transform="translate(122,76)"/>
<path d="M0 0 C4 4.75 4 4.75 4 7 C9.02873553 7.47936163 9.02873553 7.47936163 13.3125 5.1875 C14.60833476 3.5077142 15.8231897 1.76521545 17 0 C17.31068741 3.41756151 17.3625104 5.40106977 15.5625 8.375 C11.77767083 10.77513557 8.3612774 10.7842297 4 10 C1.4375 8.375 1.4375 8.375 0 6 C-0.25 2.75 -0.25 2.75 0 0 Z " fill="#1C4873" transform="translate(78,76)"/>
<path d="M0 0 C0.66 0.66 1.32 1.32 2 2 C1.68184975 5.28755263 0.49175937 6.90692213 -2 9 C-5.20061023 10.60030511 -8.5267248 10.49422098 -12 10 C-14.5 8.3125 -14.5 8.3125 -16 6 C-16.25 3.25 -16.25 3.25 -16 1 C-15.34 1 -14.68 1 -14 1 C-12.95107762 2.63631892 -11.95093297 4.30485863 -11 6 C-10.67 6.33 -10.34 6.66 -10 7 C-6.54573858 7.06681009 -6.54573858 7.06681009 -3 6 C-0.98958997 3.06550592 -0.98958997 3.06550592 0 0 Z " fill="#1A4672" transform="translate(224,76)"/>
<path d="M0 0 C0.433125 0.598125 0.86625 1.19625 1.3125 1.8125 C3.43244077 4.63278652 3.43244077 4.63278652 6 7 C9.12414314 7.31241431 10.99825776 7.00058075 14 6 C15.21869929 3.49552484 15.21869929 3.49552484 16 1 C16.33 1 16.66 1 17 1 C17.34538204 4.10843835 17.23301458 5.62515045 15.5625 8.3125 C11.79102253 10.7961559 8.38987896 10.78937273 4 10 C1.4375 8.375 1.4375 8.375 0 6 C-0.25 2.75 -0.25 2.75 0 0 Z " fill="#194571" transform="translate(165,76)"/>
<path d="M0 0 C1.67542976 0.28604898 3.34385343 0.61781233 5 1 C5.625 3.375 5.625 3.375 6 6 C5.34 6.66 4.68 7.32 4 8 C1.73725212 7.64644564 0.04911148 7.02455574 -2 6 C-1.125 1.125 -1.125 1.125 0 0 Z " fill="#4C79A5" transform="translate(264,284)"/>
<path d="M0 0 C1.67542976 0.28604898 3.34385343 0.61781233 5 1 C5.625 3.375 5.625 3.375 6 6 C5.34 6.66 4.68 7.32 4 8 C1.06546739 7.63318342 0.13562754 7.13562754 -2 5 C-1.46428571 1.46428571 -1.46428571 1.46428571 0 0 Z " fill="#4976A4" transform="translate(216,284)"/>
<path d="M0 0 C2.8992226 0.46761655 3.86675182 0.86675182 6 3 C5.625 5.125 5.625 5.125 5 7 C2.625 7.625 2.625 7.625 0 8 C-0.66 7.34 -1.32 6.68 -2 6 C-1.44444444 1.44444444 -1.44444444 1.44444444 0 0 Z " fill="#4976A4" transform="translate(282,266)"/>
<path d="M0 0 C0.99 0.33 1.98 0.66 3 1 C-0.12734489 4.57958349 -3.07717606 6.13365284 -7.5 7.8125 C-8.6240625 8.25207031 -9.748125 8.69164062 -10.90625 9.14453125 C-13.89954464 9.97222257 -15.17279346 10.12949673 -18 9 C-16.95199219 8.51789063 -15.90398437 8.03578125 -14.82421875 7.5390625 C-13.44525174 6.901173 -12.06634883 6.26314491 -10.6875 5.625 C-9.65206055 5.14933594 -9.65206055 5.14933594 -8.59570312 4.6640625 C-5.57233933 3.26192277 -2.77843695 1.8522913 0 0 Z " fill="#ACC1D6" transform="translate(279,304)"/>
<path d="M0 0 C3.69230769 0.69230769 3.69230769 0.69230769 5 2 C5.04063832 3.66617115 5.042721 5.33388095 5 7 C2.625 7.625 2.625 7.625 0 8 C-0.66 7.34 -1.32 6.68 -2 6 C-1.44444444 1.44444444 -1.44444444 1.44444444 0 0 Z " fill="#4473A1" transform="translate(199,266)"/>
<path d="M0 0 C0.78375 0.04125 1.5675 0.0825 2.375 0.125 C3 2.5 3 2.5 3.375 5.125 C2.715 5.785 2.055 6.445 1.375 7.125 C-1.25 6.75 -1.25 6.75 -3.625 6.125 C-4.25 4.25 -4.25 4.25 -4.625 2.125 C-2.625 0.125 -2.625 0.125 0 0 Z " fill="#4372A1" transform="translate(290.625,242.875)"/>
<path d="M0 0 C2.375 -0.125 2.375 -0.125 5 0 C5.66 0.66 6.32 1.32 7 2 C6.625 4.125 6.625 4.125 6 6 C3.625 6.625 3.625 6.625 1 7 C0.34 6.34 -0.32 5.68 -1 5 C-0.625 2.375 -0.625 2.375 0 0 Z " fill="#4372A1" transform="translate(281,219)"/>
<path d="M0 0 C2.5 0.125 2.5 0.125 3.5 1.125 C3.625 3.625 3.625 3.625 3.5 6.125 C2.5 7.125 2.5 7.125 -0.0625 7.1875 C-1.2690625 7.1565625 -1.2690625 7.1565625 -2.5 7.125 C-2.88133299 5.1335944 -3.21325582 3.13220923 -3.5 1.125 C-2.5 0.125 -2.5 0.125 0 0 Z " fill="#3F6F9F" transform="translate(200.5,218.875)"/>
<path d="M0 0 C1.2065625 0.0309375 1.2065625 0.0309375 2.4375 0.0625 C3.0625 2.4375 3.0625 2.4375 3.4375 5.0625 C2.7775 5.7225 2.1175 6.3825 1.4375 7.0625 C-1.1875 6.6875 -1.1875 6.6875 -3.5625 6.0625 C-3.605221 4.39638095 -3.60313832 2.72867115 -3.5625 1.0625 C-2.5625 0.0625 -2.5625 0.0625 0 0 Z " fill="#3D6E9E" transform="translate(242.5625,290.9375)"/>
<path d="M0 0 C1.2065625 0.0309375 1.2065625 0.0309375 2.4375 0.0625 C3.0625 2.4375 3.0625 2.4375 3.4375 5.0625 C2.7775 5.7225 2.1175 6.3825 1.4375 7.0625 C-1.1875 6.6875 -1.1875 6.6875 -3.5625 6.0625 C-3.605221 4.39638095 -3.60313832 2.72867115 -3.5625 1.0625 C-2.5625 0.0625 -2.5625 0.0625 0 0 Z " fill="#3C6D9E" transform="translate(194.5625,242.9375)"/>
<path d="M0 0 C1.67542976 0.28604898 3.34385343 0.61781233 5 1 C5.38218767 2.65614657 5.71395102 4.32457024 6 6 C5 7 5 7 2.5 7.125 C0 7 0 7 -1 6 C-1.125 3.5 -1.125 3.5 -1 1 C-0.67 0.67 -0.34 0.34 0 0 Z " fill="#3D6E9E" transform="translate(264,201)"/>
<path d="M0 0 C1.67542976 0.28604898 3.34385343 0.61781233 5 1 C5.38218767 2.65614657 5.71395102 4.32457024 6 6 C5 7 5 7 2.5 7.125 C0 7 0 7 -1 6 C-1.125 3.5 -1.125 3.5 -1 1 C-0.67 0.67 -0.34 0.34 0 0 Z " fill="#3D6E9E" transform="translate(216,201)"/>
<path d="M0 0 C1.2065625 0.0309375 1.2065625 0.0309375 2.4375 0.0625 C3.0625 2.4375 3.0625 2.4375 3.4375 5.0625 C2.7775 5.7225 2.1175 6.3825 1.4375 7.0625 C-1.1875 6.6875 -1.1875 6.6875 -3.5625 6.0625 C-3.605221 4.39638095 -3.60313832 2.72867115 -3.5625 1.0625 C-2.5625 0.0625 -2.5625 0.0625 0 0 Z " fill="#3D6D9E" transform="translate(242.5625,194.9375)"/>
<path d="M0 0 C2.125 0.375 2.125 0.375 4 1 C3.19185349 2.33597652 2.37836819 3.668725 1.5625 5 C1.11003906 5.7425 0.65757812 6.485 0.19140625 7.25 C-0.20175781 7.8275 -0.59492188 8.405 -1 9 C-1.33 9 -1.66 9 -2 9 C-2.125 5.625 -2.125 5.625 -2 2 C-1.34 1.34 -0.68 0.68 0 0 Z " fill="#9FB8D0" transform="translate(182,206)"/>
<path d="M0 0 C1.98 0.66 3.96 1.32 6 2 C6 3.32 6 4.64 6 6 C3.36 4.68 0.72 3.36 -2 2 C-1.34 1.34 -0.68 0.68 0 0 Z " fill="#B4C7DA" transform="translate(275,183)"/>
</svg>
